<svg width="89" height="89" viewBox="0 0 89 89" fill="none" xmlns="http://www.w3.org/2000/svg">
<path d="M77.4708 7.43894L77.8639 7.41669L78.3459 7.44635L78.6797 7.50569L79.1358 7.63548L79.5326 7.80606L79.9034 8.01744L80.2372 8.26589L80.5413 8.54402L80.7341 8.76281L81.0382 9.19298L81.231 9.54898C81.4053 9.91981 81.5166 10.3129 81.5648 10.7208L81.5833 11.1139C81.5833 11.392 81.5536 11.6664 81.4943 11.9297L81.3645 12.3859L57.1417 79.4214C56.6825 80.421 55.9461 81.2679 55.0199 81.8615C54.0938 82.455 53.0167 82.7704 51.9166 82.77C50.9259 82.7732 49.9512 82.5197 49.0875 82.0342C48.2239 81.5488 47.5006 80.8479 46.9883 79.9999L46.7472 79.5289L34.3169 54.6757L9.58231 42.3047C8.6671 41.8861 7.87783 41.2346 7.29343 40.4153C6.70903 39.5959 6.35 38.6375 6.25223 37.6359L6.22998 37.0834C6.22998 35.0067 7.34619 33.108 9.34869 32.0029L9.86786 31.7434L76.6809 7.61694L77.074 7.50569L77.4708 7.43894Z" fill="black"/>
</svg>
