<svg width="31" height="26" viewBox="0 0 31 26" fill="none" xmlns="http://www.w3.org/2000/svg">
<path d="M18.9716 21.9688C21.4045 21.8895 23.443 20.9409 25.0872 19.1229C26.7314 17.305 27.5116 15.1371 27.4276 12.6194C27.3428 10.0765 26.3772 7.95922 24.5307 6.26767C22.6842 4.57611 20.5081 3.77117 18.0023 3.85284C16.8345 3.8909 15.7078 4.06625 14.6223 4.37889C13.5368 4.69152 12.4923 5.14144 11.489 5.72865L15.1886 7.12036C16.2004 7.51587 17.0192 8.15081 17.645 9.02518C18.2709 9.89956 18.6022 10.8907 18.6392 11.9985C18.6896 13.5091 18.2276 14.8096 17.2532 15.9C16.2788 16.9903 15.0739 17.5589 13.6386 17.6057L4.29647 17.9102C4.26796 18.516 4.26651 19.2029 4.29212 19.9708L4.3746 22.4445L18.9716 21.9688ZM4.70663 14.8722L13.4648 14.5868C14.1217 14.5654 14.6674 14.3144 15.102 13.834C15.5365 13.3535 15.7424 12.7734 15.7198 12.0936C15.7038 11.6152 15.5616 11.1851 15.2932 10.8032C15.0247 10.4212 14.656 10.1371 14.187 9.95075L8.71058 7.86081C7.71985 8.82568 6.88537 9.91148 6.20714 11.1182C5.52891 12.325 5.02874 13.5763 4.70663 14.8722ZM19.0724 24.9901L4.47534 25.4658C3.6725 25.492 2.97536 25.2186 2.38392 24.6455C1.79247 24.0725 1.48289 23.3705 1.45519 22.5397L1.34186 19.1407C1.25958 16.6733 1.63263 14.3486 2.46101 12.1666C3.28938 9.98458 4.44934 8.06901 5.94088 6.41988C7.43242 4.77076 9.20879 3.44632 11.27 2.44655C13.3311 1.44679 15.5417 0.908454 17.9015 0.831538C19.5558 0.777618 21.1234 1.04159 22.604 1.62345C24.0847 2.20531 25.3907 3.02601 26.522 4.08555C27.6533 5.14509 28.5596 6.3947 29.2408 7.83438C29.922 9.27406 30.2908 10.8373 30.347 12.5242C30.4024 14.186 30.1506 15.7632 29.5915 17.2559C29.0324 18.7486 28.242 20.0598 27.2202 21.1895C26.1984 22.3192 24.9864 23.222 23.5842 23.8978C22.182 24.5737 20.678 24.9377 19.0724 24.9901Z" fill="#919191"/>
</svg>
