<svg width="31" height="30" viewBox="0 0 31 30" fill="none" xmlns="http://www.w3.org/2000/svg">
<path d="M10.25 20H25.25V16.25H22.0625C21.625 17.0208 21.0208 17.6302 20.25 18.0781C19.4792 18.526 18.6458 18.75 17.75 18.75C16.875 18.75 16.0521 18.526 15.2812 18.0781C14.5104 17.6302 13.8958 17.0208 13.4375 16.25H10.25V20ZM17.75 16.25C18.4583 16.25 19.0521 16.0052 19.5312 15.5156C20.0104 15.026 20.25 14.4375 20.25 13.75H25.25V5H10.25V13.75H15.25C15.25 14.4375 15.4948 15.026 15.9844 15.5156C16.474 16.0052 17.0625 16.25 17.75 16.25ZM10.25 22.5C9.5625 22.5 8.97396 22.2552 8.48438 21.7656C7.99479 21.276 7.75 20.6875 7.75 20V5C7.75 4.3125 7.99479 3.72396 8.48438 3.23438C8.97396 2.74479 9.5625 2.5 10.25 2.5H25.25C25.9375 2.5 26.526 2.74479 27.0156 3.23438C27.5052 3.72396 27.75 4.3125 27.75 5V20C27.75 20.6875 27.5052 21.276 27.0156 21.7656C26.526 22.2552 25.9375 22.5 25.25 22.5H10.25ZM5.25 27.5C4.5625 27.5 3.97396 27.2552 3.48438 26.7656C2.99479 26.276 2.75 25.6875 2.75 25V7.5H5.25V25H22.75V27.5H5.25Z" fill="#919191"/>
</svg>
