<svg width="133" height="67" viewBox="0 0 133 67" fill="none" xmlns="http://www.w3.org/2000/svg">
<path d="M16.6919 47.3843L20.2373 47.0737H21.1948C21.6606 47.0737 22.0402 47.2204 22.3335 47.5137C22.644 47.807 22.7993 48.1865 22.7993 48.6523V51.4214C22.7993 51.8009 22.644 52.146 22.3335 52.4565C22.0402 52.7498 21.6606 52.931 21.1948 53C19.4351 53.3451 17.1405 53.5176 14.311 53.5176C6.89242 53.5176 3.18311 49.6357 3.18311 41.8721V17.4941C3.18311 17.0283 3.32975 16.6488 3.62305 16.3555C3.93359 16.0449 4.31315 15.8896 4.76172 15.8896H10.5586C11.0072 15.8896 11.3781 16.0449 11.6714 16.3555C11.9819 16.6488 12.1372 17.0283 12.1372 17.4941V26.1377H19.3574C19.806 26.1377 20.1769 26.2843 20.4702 26.5776C20.7808 26.8709 20.936 27.2505 20.936 27.7163V30.7959C20.936 31.2617 20.7808 31.6413 20.4702 31.9346C20.1769 32.2279 19.806 32.3745 19.3574 32.3745H12.1372V41.8721C12.1372 43.6318 12.5513 44.9948 13.3794 45.9609C14.2075 46.9098 15.3117 47.3843 16.6919 47.3843ZM28.5962 51.1367C26.3188 49.5495 25.1802 47.3066 25.1802 44.4082C25.1802 41.5098 26.3188 39.2842 28.5962 37.7314C30.8908 36.1787 33.841 35.4023 37.4468 35.4023H46.0127C46.0127 33.3838 45.59 31.9777 44.7446 31.1841C43.8993 30.3905 42.4155 29.9937 40.2935 29.9937C38.1886 29.9937 36.7049 30.5199 35.8423 31.5723C34.9969 32.6074 33.9531 33.125 32.7109 33.125H28.855C28.3892 33.125 28.001 32.9784 27.6904 32.6851C27.3971 32.3745 27.2505 31.995 27.2505 31.5464C27.2505 26.5949 31.9518 24.1191 41.3545 24.1191C45.4606 24.1191 48.7559 25.0422 51.2402 26.8882C53.7246 28.717 54.9668 31.555 54.9668 35.4023V51.4214C54.9668 51.8872 54.8201 52.2668 54.5269 52.5601C54.2336 52.8534 53.854 53 53.3882 53H48.3936C47.9277 53 47.5482 52.8534 47.2549 52.5601C46.9616 52.2495 46.8149 51.87 46.8149 51.4214V50.6191C44.089 52.5687 40.9404 53.5348 37.3691 53.5176C33.8151 53.5176 30.8908 52.724 28.5962 51.1367ZM38.0679 41.2769C36.8602 41.2769 35.9027 41.5701 35.1953 42.1567C34.5052 42.7433 34.1602 43.5024 34.1602 44.4341C34.1602 45.3657 34.5225 46.1335 35.2471 46.7373C35.9717 47.3411 36.9982 47.6431 38.3267 47.6431C40.9836 47.6431 43.5456 46.8667 46.0127 45.314V41.2769H38.0679ZM72.8491 50.8262C68.9328 50.8262 65.7669 49.6444 63.3516 47.2808C60.9535 44.9172 59.7544 41.6392 59.7544 37.4468C59.7544 33.2544 61.126 29.985 63.8691 27.6387C66.6123 25.2923 70.5459 24.1191 75.6699 24.1191C78.1715 24.1191 80.7681 24.4038 83.4595 24.9731C86.1509 25.5252 88.1781 26.2067 89.541 27.0176V50.9814C89.541 54.8288 88.2729 57.6668 85.7368 59.4956C83.2007 61.3416 79.638 62.2646 75.0488 62.2646C70.4769 62.2646 66.9487 61.6867 64.4644 60.5308C61.9972 59.3921 60.7637 57.5029 60.7637 54.8633C60.7637 54.3975 60.9103 54.0093 61.2036 53.6987C61.5142 53.4054 61.9023 53.2588 62.3682 53.2588H66.2241C67.4663 53.2588 68.4583 53.716 69.2002 54.6304C70.1491 55.8035 71.8312 56.3901 74.2466 56.3901C76.6792 56.3901 78.3441 55.9933 79.2412 55.1997C80.1383 54.4061 80.5869 53 80.5869 50.9814V49.7651C77.8265 50.4725 75.2472 50.8262 72.8491 50.8262ZM75.1265 30.3818C71.0376 30.3646 68.9932 32.7282 68.9932 37.4727C68.9932 42.1999 70.9858 44.5635 74.9712 44.5635C76.6274 44.5635 78.4993 44.3047 80.5869 43.7871V30.9512C79.1032 30.5544 77.283 30.3646 75.1265 30.3818Z" fill="white"/>
<path d="M114.582 18.0865L105.349 27.3199C104.732 27.9365 104.382 28.7865 104.382 29.6699V46.3199C104.382 48.1532 105.882 49.6532 107.715 49.6532H122.715C124.049 49.6532 125.249 48.8532 125.782 47.6365L131.215 34.9532C132.615 31.6532 130.199 27.9865 126.615 27.9865H117.199L118.782 20.3532C118.949 19.5199 118.699 18.6699 118.099 18.0699C117.115 17.1032 115.549 17.1032 114.582 18.0865ZM97.7152 49.6532C99.5485 49.6532 101.049 48.1532 101.049 46.3199V32.9865C101.049 31.1532 99.5485 29.6532 97.7152 29.6532C95.8818 29.6532 94.3818 31.1532 94.3818 32.9865V46.3199C94.3818 48.1532 95.8818 49.6532 97.7152 49.6532Z" fill="black"/>
</svg>
