<svg width="30" height="30" viewBox="0 0 30 30" fill="none" xmlns="http://www.w3.org/2000/svg">
<path d="M15.8492 1.02864L8.84699 9.57306C8.37934 10.1437 8.12658 10.9197 8.14895 11.7185L8.57063 26.7746C8.61706 28.4324 9.83058 29.7571 11.2673 29.7184L23.0226 29.4016C24.0675 29.3734 24.9877 28.6246 25.3748 27.5132L29.3116 15.9293C30.3252 12.9156 28.3385 9.65104 25.5302 9.72673L18.1505 9.92562L19.1981 2.9896C19.3076 2.23253 19.0901 1.46918 18.6047 0.939291C17.8096 0.0859351 16.5818 0.119025 15.8492 1.02864ZM3.43049 29.9296C4.86724 29.8909 6.00478 28.5028 5.95835 26.845L5.62066 14.7881C5.57423 13.1302 4.36071 11.8055 2.92396 11.8443C1.4872 11.883 0.349663 13.2711 0.396095 14.9289L0.733781 26.9858C0.780213 28.6436 1.99373 29.9683 3.43049 29.9296Z" fill="#919191"/>
</svg>
