<svg width="39" height="28" viewBox="0 0 39 28" fill="none" xmlns="http://www.w3.org/2000/svg">
<path d="M6.92871 19.6689L8.40039 19.54H8.79785C8.99121 19.54 9.14876 19.6009 9.27051 19.7227C9.39941 19.8444 9.46387 20.002 9.46387 20.1953V21.3447C9.46387 21.5023 9.39941 21.6455 9.27051 21.7744C9.14876 21.8962 8.99121 21.9714 8.79785 22C8.06738 22.1432 7.11491 22.2148 5.94043 22.2148C2.861 22.2148 1.32129 20.6035 1.32129 17.3809V7.26172C1.32129 7.06836 1.38216 6.91081 1.50391 6.78906C1.63281 6.66016 1.79036 6.5957 1.97656 6.5957H4.38281C4.56901 6.5957 4.72298 6.66016 4.84473 6.78906C4.97363 6.91081 5.03809 7.06836 5.03809 7.26172V10.8496H8.03516C8.22135 10.8496 8.37533 10.9105 8.49707 11.0322C8.62598 11.154 8.69043 11.3115 8.69043 11.5049V12.7832C8.69043 12.9766 8.62598 13.1341 8.49707 13.2559C8.37533 13.3776 8.22135 13.4385 8.03516 13.4385H5.03809V17.3809C5.03809 18.1113 5.20996 18.6771 5.55371 19.0781C5.89746 19.472 6.35579 19.6689 6.92871 19.6689ZM11.8701 21.2266C10.9248 20.5677 10.4521 19.6367 10.4521 18.4336C10.4521 17.2305 10.9248 16.3066 11.8701 15.6621C12.8226 15.0176 14.0472 14.6953 15.5439 14.6953H19.0996C19.0996 13.8574 18.9242 13.2738 18.5732 12.9443C18.2223 12.6149 17.6064 12.4502 16.7256 12.4502C15.8519 12.4502 15.236 12.6686 14.8779 13.1055C14.527 13.5352 14.0938 13.75 13.5781 13.75H11.9775C11.7842 13.75 11.623 13.6891 11.4941 13.5674C11.3724 13.4385 11.3115 13.2809 11.3115 13.0947C11.3115 11.0394 13.263 10.0117 17.166 10.0117C18.8704 10.0117 20.2383 10.3949 21.2695 11.1611C22.3008 11.9202 22.8164 13.0983 22.8164 14.6953V21.3447C22.8164 21.5381 22.7555 21.6956 22.6338 21.8174C22.512 21.9391 22.3545 22 22.1611 22H20.0879C19.8945 22 19.737 21.9391 19.6152 21.8174C19.4935 21.6885 19.4326 21.5309 19.4326 21.3447V21.0117C18.3011 21.821 16.9941 22.222 15.5117 22.2148C14.0365 22.2148 12.8226 21.8854 11.8701 21.2266ZM15.8018 17.1338C15.3005 17.1338 14.903 17.2555 14.6094 17.499C14.3229 17.7425 14.1797 18.0576 14.1797 18.4443C14.1797 18.8311 14.3301 19.1497 14.6309 19.4004C14.9316 19.651 15.3577 19.7764 15.9092 19.7764C17.012 19.7764 18.0755 19.4541 19.0996 18.8096V17.1338H15.8018ZM30.2393 21.0977C28.6136 21.0977 27.2995 20.6071 26.2969 19.626C25.3014 18.6449 24.8037 17.2842 24.8037 15.5439C24.8037 13.8037 25.373 12.4466 26.5117 11.4727C27.6504 10.4987 29.2832 10.0117 31.4102 10.0117C32.4486 10.0117 33.5264 10.1299 34.6436 10.3662C35.7607 10.5954 36.6022 10.8783 37.168 11.2148V21.1621C37.168 22.7591 36.6416 23.9372 35.5889 24.6963C34.5361 25.4626 33.0573 25.8457 31.1523 25.8457C29.2546 25.8457 27.79 25.6058 26.7588 25.126C25.7347 24.6533 25.2227 23.8691 25.2227 22.7734C25.2227 22.5801 25.2835 22.4189 25.4053 22.29C25.5342 22.1683 25.6953 22.1074 25.8887 22.1074H27.4893C28.0049 22.1074 28.4167 22.2972 28.7246 22.6768C29.1185 23.1637 29.8167 23.4072 30.8193 23.4072C31.8291 23.4072 32.5202 23.2425 32.8926 22.9131C33.265 22.5837 33.4512 22 33.4512 21.1621V20.6572C32.3053 20.9508 31.2347 21.0977 30.2393 21.0977ZM31.1846 12.6113C29.4873 12.6042 28.6387 13.5853 28.6387 15.5547C28.6387 17.5169 29.4658 18.498 31.1201 18.498C31.8076 18.498 32.5846 18.3906 33.4512 18.1758V12.8477C32.8353 12.6829 32.0798 12.6042 31.1846 12.6113Z" fill="#919191"/>
</svg>
